External Loads File
version=1
nRows=93
nColumns=13
Range=5.000000e-03-10 seconds
endheader
time 	forceRightX 	forceRightY 	forceRightZ 	pointRightX 	pointRightY 	pointRightZ 	forceLeftX 	forceLeftY 	forceLeftZ 	pointLeftX 	pointLeftY 	pointLeftZ 		
7.505000 -6.241629 737.359685 -0.000000 0.376678 0.217164 -0.132637 66.540696 -6.829322 -0.000000 0.189140 0.418528 -0.374750
7.510000 25.392093 738.983089 -0.000000 0.369322 0.209076 -0.132942 56.218335 -22.805739 -0.000000 0.196804 0.426206 -0.374584
7.515000 57.322050 737.391413 -0.000000 0.361670 0.201281 -0.133325 44.804946 -39.287740 -0.000000 0.204750 0.433805 -0.374393
7.520000 88.174473 732.832332 -0.000000 0.353850 0.193988 -0.133772 32.348831 -56.056593 -0.000000 0.213089 0.441138 -0.374210
7.525000 118.134612 725.406691 -0.000000 0.345557 0.187256 -0.134038 18.884738 -72.923305 -0.000000 0.221852 0.448125 -0.374147
7.530000 145.546743 715.413791 -0.000000 0.337141 0.180774 -0.134307 4.726024 -89.579104 -0.000000 0.230686 0.454622 -0.373841
7.535000 171.330167 702.657601 -0.000000 0.328442 0.175065 -0.134484 -9.962037 -105.738962 -0.000000 0.240055 0.460784 -0.373792
7.540000 193.964851 687.368227 -0.000000 0.319671 0.169941 -0.134825 -24.633887 -121.064059 -0.000000 0.249478 0.466474 -0.373520
7.545000 213.968347 669.281165 -0.000000 0.310493 0.165205 -0.134946 -38.947961 -135.152495 -0.000000 0.258851 0.471531 -0.373180
7.550000 231.046391 648.305726 -0.000000 0.301158 0.161254 -0.134975 -52.402806 -147.574481 -0.000000 0.268376 0.476007 -0.372979
7.555000 243.867903 624.818168 -0.000000 0.292196 0.157767 -0.135461 -64.282271 -158.049940 -0.000000 0.277919 0.479935 -0.372611
7.560000 254.168443 598.187019 -0.000000 0.282743 0.154889 -0.135520 -74.717294 -166.089331 -0.000000 0.287563 0.483155 -0.372480
7.565000 260.803530 569.045278 -0.000000 0.273241 0.152785 -0.135538 -83.234928 -171.567343 -0.000000 0.297150 0.485690 -0.372230
7.570000 263.342759 537.970115 -0.000000 0.264135 0.151264 -0.135971 -89.577028 -174.492811 -0.000000 0.306748 0.487490 -0.371978
7.575000 262.648633 504.960886 -0.000000 0.254999 0.150419 -0.136246 -94.009060 -174.852676 -0.000000 0.316302 0.488740 -0.371882
7.580000 258.935685 470.265159 -0.000000 0.245840 0.150225 -0.136504 -96.724435 -172.851554 -0.000000 0.325769 0.489202 -0.371624
7.585000 251.889833 434.416138 -0.000000 0.236981 0.150662 -0.136840 -97.785590 -168.881989 -0.000000 0.335062 0.489076 -0.371453
7.590000 242.025328 397.491985 -0.000000 0.228291 0.151778 -0.137228 -97.613834 -163.181911 -0.000000 0.344174 0.488217 -0.371361
7.595000 229.402214 359.857769 -0.000000 0.219943 0.153502 -0.137534 -96.523718 -156.066090 -0.000000 0.353144 0.486635 -0.371412
7.600000 214.088653 322.013124 -0.000000 0.211876 0.155886 -0.137916 -94.880079 -147.846693 -0.000000 0.361725 0.484435 -0.371399
7.605000 196.318241 284.551633 -0.000000 0.204299 0.158713 -0.138202 -93.128570 -138.805780 -0.000000 0.369954 0.481389 -0.371311
7.610000 176.492247 248.154280 -0.000000 0.197092 0.162011 -0.138596 -91.717272 -129.197599 -0.000000 0.377818 0.478004 -0.371227
7.615000 155.455720 213.331116 -0.000000 0.190258 0.165818 -0.138959 -91.185743 -119.101437 -0.000000 0.385460 0.473806 -0.370943
7.620000 133.712605 180.874974 -0.000000 0.183830 0.170187 -0.139109 -91.753006 -108.635648 -0.000000 0.392718 0.468910 -0.371130
7.625000 112.016188 151.346640 -0.000000 0.177464 0.175118 -0.139328 -93.650462 -97.690810 -0.000000 0.399611 0.463304 -0.371263
7.630000 90.680441 125.537382 -0.000000 0.171546 0.180577 -0.139572 -96.742006 -86.308283 -0.000000 0.406031 0.457151 -0.371445
7.635000 70.268689 103.930838 -0.000000 0.165964 0.186389 -0.139818 -100.971925 -74.381628 -0.000000 0.412095 0.450494 -0.371489
7.640000 51.295425 86.877210 -0.000000 0.160686 0.192664 -0.139939 -106.213554 -61.825204 -0.000000 0.417684 0.443323 -0.371375
7.645000 34.258041 74.524716 -0.000000 0.155897 0.199523 -0.140070 -112.303875 -48.569622 -0.000000 0.422893 0.435630 -0.371150
7.650000 19.597628 66.805982 -0.000000 0.151364 0.206811 -0.140107 -119.035713 -34.633503 -0.000000 0.427607 0.427548 -0.371015
7.655000 7.767111 63.380179 -0.000000 0.147009 0.214547 -0.140297 -126.222561 -19.999458 -0.000000 0.431898 0.419015 -0.370705
7.660000 -0.926076 63.665937 -0.000000 0.143058 0.222881 -0.140424 -133.657400 -4.742148 -0.000000 0.435704 0.409980 -0.370524
7.665000 -6.415127 66.870618 -0.000000 0.139493 0.231667 -0.140493 -141.163313 10.950344 -0.000000 0.439076 0.400613 -0.370262
7.670000 -8.802411 72.127784 -0.000000 0.136276 0.240976 -0.140569 -148.577568 26.986660 -0.000000 0.441946 0.390849 -0.369922
7.675000 -8.434997 78.620031 -0.000000 0.133467 0.250667 -0.140635 -155.728805 43.100737 -0.000000 0.444342 0.380837 -0.369794
7.680000 -5.713682 85.668241 -0.000000 0.131233 0.260643 -0.140731 -162.414316 59.120530 -0.000000 0.446259 0.370462 -0.369709
7.685000 -1.074349 92.767607 -0.000000 0.129419 0.270944 -0.140813 -168.399521 74.916884 -0.000000 0.447703 0.359864 -0.369599
7.690000 4.905487 99.588456 -0.000000 0.128080 0.281328 -0.140839 -173.536999 90.183573 -0.000000 0.448581 0.349217 -0.369403
7.695000 11.809605 105.935972 -0.000000 0.127432 0.291884 -0.140949 -177.556030 104.957824 -0.000000 0.448954 0.338455 -0.369583
7.700000 19.229241 111.663165 -0.000000 0.127224 0.302600 -0.141044 -180.217275 119.281310 -0.000000 0.448762 0.327626 -0.369584
7.705000 26.655225 116.662306 -0.000000 0.127800 0.313213 -0.141308 -181.488309 133.033094 -0.000000 0.448197 0.316898 -0.370031
7.710000 33.918016 120.793894 -0.000000 0.128740 0.324024 -0.141396 -181.065831 146.618995 -0.000000 0.447056 0.306216 -0.370030
7.715000 40.680882 124.024090 -0.000000 0.130256 0.334778 -0.141588 -178.907053 160.089213 -0.000000 0.445274 0.295648 -0.370147
7.720000 46.666485 126.439205 -0.000000 0.132213 0.345297 -0.141748 -174.990994 173.422787 -0.000000 0.442921 0.285335 -0.370301
7.725000 51.788304 128.208956 -0.000000 0.134943 0.355559 -0.141666 -169.173706 186.648919 -0.000000 0.440061 0.275355 -0.370477
7.730000 55.887459 129.649402 -0.000000 0.137643 0.365382 -0.141891 -161.624920 199.492681 -0.000000 0.436577 0.265817 -0.370597
7.735000 59.055139 131.028948 -0.000000 0.141032 0.374695 -0.141987 -152.414508 211.865218 -0.000000 0.432592 0.256861 -0.370833
7.740000 61.519853 132.538526 -0.000000 0.144842 0.383623 -0.141937 -141.658783 223.734089 -0.000000 0.428083 0.248454 -0.370937
7.745000 63.263982 134.421857 -0.000000 0.148873 0.391633 -0.141930 -130.156499 234.782919 -0.000000 0.423231 0.240604 -0.371070
7.750000 64.868385 136.541524 -0.000000 0.153391 0.399520 -0.141750 -117.837362 245.372487 -0.000000 0.418093 0.233426 -0.371074
7.755000 66.250156 138.949815 -0.000000 0.158026 0.406481 -0.141604 -105.777318 255.314928 -0.000000 0.412716 0.226782 -0.371120
7.760000 67.770457 141.367165 -0.000000 0.162775 0.412992 -0.141441 -94.116452 264.892176 -0.000000 0.407277 0.220541 -0.370991
7.765000 69.732338 143.429105 -0.000000 0.167810 0.419316 -0.141338 -82.802896 274.267121 -0.000000 0.401656 0.214590 -0.371036
7.770000 72.177170 144.814564 -0.000000 0.173325 0.425402 -0.140991 -71.918491 283.367450 -0.000000 0.395973 0.208759 -0.371103
7.775000 74.586192 145.457383 -0.000000 0.178436 0.431224 -0.141101 -62.304792 291.849587 -0.000000 0.390222 0.203214 -0.371201
7.780000 77.027985 145.038989 -0.000000 0.183914 0.436906 -0.140992 -53.374122 299.680107 -0.000000 0.384444 0.197763 -0.371312
7.785000 79.430242 143.386736 -0.000000 0.189725 0.443342 -0.140649 -44.569918 306.699236 -0.000000 0.378561 0.192476 -0.371437
7.790000 80.826108 140.943037 -0.000000 0.195606 0.448562 -0.140703 -37.181940 312.472148 -0.000000 0.372560 0.187425 -0.371561
7.795000 81.405097 137.633740 -0.000000 0.201730 0.453682 -0.140524 -30.144594 316.982892 -0.000000 0.366364 0.182634 -0.371653
7.800000 81.073719 133.606937 -0.000000 0.208282 0.458764 -0.140401 -23.149385 320.172268 -0.000000 0.360090 0.178109 -0.371804
7.805000 79.625993 129.129576 -0.000000 0.214936 0.463269 -0.140262 -16.436019 322.061563 -0.000000 0.353592 0.173966 -0.371939
7.810000 77.254383 124.258733 -0.000000 0.221773 0.467497 -0.140074 -9.562699 322.818660 -0.000000 0.346956 0.170108 -0.372052
7.815000 74.172367 119.044863 -0.000000 0.228923 0.471398 -0.139870 -2.184910 322.638339 -0.000000 0.340147 0.166663 -0.372305
7.820000 70.427353 113.629308 -0.000000 0.235987 0.474866 -0.139639 5.559156 321.730230 -0.000000 0.333206 0.163559 -0.372517
7.825000 66.312440 107.991993 -0.000000 0.243306 0.477892 -0.139520 14.269707 320.302282 -0.000000 0.326126 0.160832 -0.372698
7.830000 61.952081 102.236260 -0.000000 0.250788 0.480447 -0.139144 24.114682 318.507988 -0.000000 0.318899 0.158457 -0.372885
7.835000 57.519203 96.462854 -0.000000 0.258463 0.482751 -0.138840 35.288591 316.404941 -0.000000 0.311516 0.156459 -0.373053
7.840000 53.101518 90.820839 -0.000000 0.266156 0.484635 -0.138559 47.555217 313.982644 -0.000000 0.303960 0.154934 -0.373243
7.845000 48.864486 85.370735 -0.000000 0.274053 0.485955 -0.138310 60.871922 311.127135 -0.000000 0.296284 0.153775 -0.373382
7.850000 44.866153 80.175816 -0.000000 0.282016 0.487007 -0.138052 74.861069 307.723198 -0.000000 0.288467 0.153028 -0.373641
7.855000 41.187556 75.237216 -0.000000 0.290168 0.487612 -0.137882 89.239506 303.615660 -0.000000 0.280521 0.152692 -0.373790
7.860000 37.791310 70.602409 -0.000000 0.298138 0.487736 -0.137598 103.189042 298.805293 -0.000000 0.272487 0.152765 -0.374008
7.865000 34.780871 66.232956 -0.000000 0.306233 0.487386 -0.137148 116.422397 293.166895 -0.000000 0.264447 0.153394 -0.374182
7.870000 32.125621 62.140313 -0.000000 0.314294 0.486564 -0.136569 128.209488 286.757099 -0.000000 0.256419 0.154399 -0.374449
7.875000 29.776332 58.314190 -0.000000 0.322325 0.485199 -0.135960 137.967612 279.646876 -0.000000 0.248408 0.155752 -0.374606
7.880000 27.627273 54.737066 -0.000000 0.330521 0.483281 -0.135458 145.170506 271.967847 -0.000000 0.240607 0.157593 -0.374808
7.885000 25.419380 51.443064 -0.000000 0.338293 0.481030 -0.134967 148.863133 264.242616 -0.000000 0.233016 0.159755 -0.375009
7.890000 23.049165 48.419712 -0.000000 0.345966 0.478425 -0.134580 149.130978 256.651804 -0.000000 0.225647 0.162215 -0.375158
7.895000 20.386436 45.770479 -0.000000 0.353381 0.475499 -0.134014 146.106224 249.579416 -0.000000 0.218572 0.164999 -0.375434
7.900000 17.453186 43.650846 -0.000000 0.360519 0.472102 -0.133609 140.757986 243.128748 -0.000000 0.211724 0.168106 -0.375582
7.905000 14.320325 42.262359 -0.000000 0.367372 0.468581 -0.133260 134.103085 237.364168 -0.000000 0.205249 0.171425 -0.375781
7.910000 11.154543 41.729127 -0.000000 0.373853 0.464893 -0.133064 127.245757 232.050755 -0.000000 0.199123 0.174943 -0.375918
7.915000 8.158017 42.066697 -0.000000 0.380303 0.461028 -0.132839 121.108850 226.807942 -0.000000 0.193334 0.178699 -0.376070
7.920000 5.366296 43.242740 -0.000000 0.386190 0.457094 -0.132741 115.567370 221.712276 -0.000000 0.187897 0.182507 -0.376246
7.925000 2.898011 45.159977 -0.000000 0.391845 0.452915 -0.132509 110.975029 216.567899 -0.000000 0.182820 0.186501 -0.376353
7.930000 0.724589 47.711449 -0.000000 0.397134 0.448683 -0.132562 107.042027 211.529664 -0.000000 0.178141 0.190542 -0.376488
7.935000 -1.134713 50.765397 -0.000000 0.401978 0.444035 -0.132406 103.866394 206.563341 -0.000000 0.173773 0.194784 -0.376694
7.940000 -2.821550 54.187873 -0.000000 0.406482 0.439665 -0.132225 100.970288 201.917395 -0.000000 0.169717 0.198956 -0.376773
7.945000 -4.368620 57.848950 -0.000000 0.410596 0.435412 -0.131981 98.352191 197.545252 -0.000000 0.165950 0.203255 -0.376883
7.950000 -5.756141 61.620291 -0.000000 0.414538 0.430840 -0.132115 96.041410 193.300072 -0.000000 0.162560 0.207520 -0.376902
7.955000 -7.065839 65.354656 -0.000000 0.418020 0.426534 -0.131960 93.599244 189.214322 -0.000000 0.159456 0.211805 -0.377075
7.960000 -8.178866 68.931124 -0.000000 0.421119 0.422073 -0.131922 91.127167 185.065686 -0.000000 0.156655 0.216111 -0.377212
7.965000 -9.060198 72.258100 -0.000000 0.423887 0.417873 -0.131756 88.422195 180.848289 -0.000000 0.154127 0.220478 -0.377301
